<svg width="34" height="28" viewBox="0 0 34 28" fill="none" xmlns="http://www.w3.org/2000/svg">
<path d="M0.895142 13.7577C0.895142 12.9983 1.45945 12.3707 2.1916 12.2713L2.39514 12.2577L28.7631 12.2589L19.2372 2.7718C18.6501 2.18727 18.6481 1.23753 19.2326 0.65048C19.764 0.116802 20.5972 0.0665942 21.1854 0.501038L21.3539 0.645912L33.4539 12.6939C33.5313 12.771 33.5985 12.8543 33.6556 12.9424C33.6717 12.9689 33.6881 12.996 33.7036 13.0237C33.7179 13.0474 33.7308 13.072 33.743 13.0969C33.76 13.1331 33.7765 13.1706 33.7915 13.2087C33.8037 13.2382 33.8139 13.2668 33.8232 13.2957C33.8343 13.3315 33.845 13.3696 33.8542 13.4083C33.8611 13.4353 33.8666 13.4614 33.8713 13.4875C33.878 13.5263 33.8836 13.5666 33.8877 13.6073C33.8912 13.6383 33.8933 13.669 33.8945 13.6998C33.8948 13.7185 33.8951 13.738 33.8951 13.7577L33.8944 13.8158C33.8932 13.8452 33.8912 13.8746 33.8884 13.904L33.8951 13.7577C33.8951 13.8523 33.8864 13.9449 33.8696 14.0347C33.8657 14.0562 33.8611 14.0782 33.856 14.1001C33.8453 14.1453 33.833 14.1887 33.8188 14.2314C33.8118 14.2525 33.8037 14.2752 33.7951 14.2976C33.7775 14.3428 33.7585 14.3858 33.7375 14.4277C33.7278 14.4474 33.7169 14.468 33.7055 14.4885C33.6867 14.5218 33.6674 14.5534 33.647 14.5843C33.6326 14.6061 33.6166 14.6289 33.6 14.6513L33.587 14.6685C33.5466 14.7213 33.5027 14.7714 33.4558 14.8183L33.454 14.8197L21.354 26.8697C20.767 27.4543 19.8173 27.4523 19.2327 26.8653C18.7013 26.3317 18.6546 25.4983 19.0915 24.9119L19.2371 24.744L28.7591 15.2589L2.39514 15.2577C1.56671 15.2577 0.895142 14.5861 0.895142 13.7577Z" fill="#403DD5"/>
</svg>
