<svg width="262" height="11" viewBox="0 0 262 11" fill="none" xmlns="http://www.w3.org/2000/svg">
<path fill-rule="evenodd" clip-rule="evenodd" d="M6.01894 2.04461C11.5683 2.71607 26.1524 2.74964 65.7428 2.81679C127.565 2.91751 176.629 3.65611 190.266 4.73044C191.349 4.83116 104.69 5.56977 95.7908 5.0326C81.9173 4.1597 15.6627 4.89831 2.33058 5.9055C-1.45926 6.17408 -0.038056 7.11413 2.43211 7.31557C6.2896 7.6513 16.644 7.61772 45.0341 7.55057C64.9984 7.517 223.833 8.28918 241.192 9.66568C250.937 10.4379 256.859 11.1429 259.566 10.975C261.833 10.8407 261.867 10.4379 259.904 9.32995C258.585 8.59134 260.073 8.15489 261.021 7.95345C262.476 7.61772 261.867 6.47624 260.04 5.56977C257.569 4.32757 253.306 4.36114 255.336 5.60334C255.776 5.87193 255.878 6.54339 254.321 6.40909C249.787 6.00622 217.742 3.25324 209.046 2.78322C116.195 -2.31988 25.5772 1.40672 6.39112 0.164517C-0.410287 -0.305505 2.70284 1.64173 6.01894 2.04461Z" fill="#403DD4"/>
</svg>
