<svg width="36" height="36" viewBox="0 0 36 36" fill="none" xmlns="http://www.w3.org/2000/svg">
<path d="M27.671 27.7304C28.3557 27.0504 29.4532 27.0504 30.1379 27.7304L34.6633 31.3834H34.7419C35.6575 32.3088 35.6575 33.8091 34.7419 34.7345C33.8264 35.6599 32.342 35.6599 31.4264 34.7345L27.671 30.4304L27.5285 30.2696C27.263 29.9336 27.1164 29.5147 27.1164 29.0804C27.1164 28.5738 27.3159 28.0881 27.671 27.7304ZM15.1947 0C19.2246 0 23.0894 1.61809 25.9389 4.4983C28.7885 7.37851 30.3894 11.2849 30.3894 15.3582C30.3894 23.8402 23.5865 30.7163 15.1947 30.7163C6.80289 30.7163 0 23.8402 0 15.3582C0 6.87608 6.80289 0 15.1947 0Z" fill="#403DD5"/>
</svg>
