<svg width="35" height="35" viewBox="0 0 35 35" fill="none" xmlns="http://www.w3.org/2000/svg">
<path d="M10.2501 19.8593C12.6914 19.8593 14.648 21.8349 14.648 24.2935V30.196C14.648 32.6374 12.6914 34.6286 10.2501 34.6286H4.39777C1.97374 34.6286 -0.00012207 32.6374 -0.00012207 30.196V24.2935C-0.00012207 21.8349 1.97374 19.8593 4.39777 19.8593H10.2501ZM30.2312 19.8593C32.6553 19.8593 34.6291 21.8349 34.6291 24.2935V30.196C34.6291 32.6374 32.6553 34.6286 30.2312 34.6286H24.3789C21.9376 34.6286 19.981 32.6374 19.981 30.196V24.2935C19.981 21.8349 21.9376 19.8593 24.3789 19.8593H30.2312ZM10.2501 0C12.6914 0 14.648 1.99117 14.648 4.43426V10.3368C14.648 12.7954 12.6914 14.7693 10.2501 14.7693H4.39777C1.97374 14.7693 -0.00012207 12.7954 -0.00012207 10.3368V4.43426C-0.00012207 1.99117 1.97374 0 4.39777 0H10.2501ZM30.2312 0C32.6553 0 34.6291 1.99117 34.6291 4.43426V10.3368C34.6291 12.7954 32.6553 14.7693 30.2312 14.7693H24.3789C21.9376 14.7693 19.981 12.7954 19.981 10.3368V4.43426C19.981 1.99117 21.9376 0 24.3789 0H30.2312Z" fill="#403DD5"/>
</svg>
