<svg width="16" height="16" viewBox="0 0 16 16" fill="none" xmlns="http://www.w3.org/2000/svg">
<path d="M5.026 15C11.064 15 14.367 9.99702 14.367 5.66602C14.367 5.52602 14.367 5.38402 14.361 5.24402C15.0041 4.77851 15.5591 4.20217 16 3.54202C15.3993 3.80687 14.7628 3.98143 14.111 4.06002C14.7975 3.64966 15.3117 3.00399 15.558 2.24302C14.913 2.62515 14.207 2.8934 13.471 3.03602C12.9762 2.50905 12.3214 2.15994 11.6081 2.04278C10.8948 1.92562 10.1627 2.04694 9.52534 2.38796C8.88796 2.72897 8.38081 3.27065 8.08245 3.92908C7.78409 4.58751 7.71118 5.32595 7.875 6.03002C6.56974 5.96457 5.29282 5.62549 4.12704 5.03476C2.96127 4.44404 1.93268 3.61487 1.108 2.60102C0.68934 3.3241 0.561574 4.17942 0.750646 4.99329C0.939718 5.80715 1.43145 6.51855 2.126 6.98302C1.60554 6.96534 1.09652 6.82558 0.64 6.57502V6.62002C0.640897 7.3775 0.903307 8.11144 1.38287 8.69778C1.86244 9.28412 2.52975 9.68689 3.272 9.83802C2.99026 9.91564 2.69923 9.95433 2.407 9.95302C2.20098 9.95365 1.99538 9.93456 1.793 9.89602C2.00279 10.5481 2.41127 11.1182 2.96125 11.5265C3.51122 11.9348 4.17513 12.1609 4.86 12.173C3.69656 13.0868 2.2594 13.5824 0.78 13.58C0.519321 13.5811 0.258823 13.5661 0 13.535C1.50151 14.4923 3.2453 15.0006 5.026 15Z" fill="#DDDEF2"/>
</svg>
