<svg width="36" height="32" viewBox="0 0 36 32" fill="none" xmlns="http://www.w3.org/2000/svg">
<path d="M29.3369 19.5204C32.7026 19.5204 35.4286 22.2005 35.4286 25.5072C35.4286 28.8119 32.7026 31.4921 29.3369 31.4921C25.9731 31.4921 23.2451 28.8119 23.2451 25.5072C23.2451 22.2005 25.9731 19.5204 29.3369 19.5204ZM14.319 22.9541C15.7932 22.9541 16.9899 24.1298 16.9899 25.5782C16.9899 27.0246 15.7932 28.2022 14.319 28.2022H2.67091C1.19669 28.2022 0 27.0246 0 25.5782C0 24.1298 1.19669 22.9541 2.67091 22.9541H14.319ZM6.09171 0C9.45741 0 12.1834 2.68014 12.1834 5.98488C12.1834 9.29155 9.45741 11.9717 6.09171 11.9717C2.72798 11.9717 0 9.29155 0 5.98488C0 2.68014 2.72798 0 6.09171 0ZM32.7596 3.36275C34.2319 3.36275 35.4286 4.53845 35.4286 5.98488C35.4286 7.43324 34.2319 8.60894 32.7596 8.60894H21.1116C19.6374 8.60894 18.4407 7.43324 18.4407 5.98488C18.4407 4.53845 19.6374 3.36275 21.1116 3.36275H32.7596Z" fill="#403DD5"/>
</svg>
