<svg width="25" height="25" viewBox="0 0 25 25" fill="none" xmlns="http://www.w3.org/2000/svg">
<path d="M12.3677 9.63427C10.8614 9.63427 9.63218 10.8635 9.63218 12.3698C9.63218 13.8761 10.8614 15.1054 12.3677 15.1054C13.8739 15.1054 15.1032 13.8761 15.1032 12.3698C15.1032 10.8635 13.8739 9.63427 12.3677 9.63427ZM20.5721 12.3698C20.5721 11.237 20.5823 10.1145 20.5187 8.98374C20.4551 7.67035 20.1555 6.50472 19.1951 5.5443C18.2327 4.58184 17.0691 4.28427 15.7557 4.22065C14.623 4.15704 13.5004 4.1673 12.3697 4.1673C11.2369 4.1673 10.1144 4.15704 8.98371 4.22065C7.67034 4.28427 6.50473 4.58389 5.54434 5.5443C4.58189 6.50677 4.28433 7.67035 4.22071 8.98374C4.1571 10.1165 4.16736 11.2391 4.16736 12.3698C4.16736 13.5006 4.1571 14.6251 4.22071 15.7559C4.28433 17.0693 4.58394 18.2349 5.54434 19.1953C6.50679 20.1578 7.67034 20.4554 8.98371 20.519C10.1165 20.5826 11.239 20.5723 12.3697 20.5723C13.5025 20.5723 14.625 20.5826 15.7557 20.519C17.0691 20.4554 18.2347 20.1557 19.1951 19.1953C20.1576 18.2329 20.4551 17.0693 20.5187 15.7559C20.5844 14.6251 20.5721 13.5026 20.5721 12.3698ZM12.3677 16.5788C10.0385 16.5788 8.15875 14.699 8.15875 12.3698C8.15875 10.0406 10.0385 8.16082 12.3677 8.16082C14.6968 8.16082 16.5766 10.0406 16.5766 12.3698C16.5766 14.699 14.6968 16.5788 12.3677 16.5788ZM16.749 8.97142C16.2052 8.97142 15.766 8.53226 15.766 7.98843C15.766 7.44461 16.2052 7.00545 16.749 7.00545C17.2928 7.00545 17.7319 7.44461 17.7319 7.98843C17.7321 8.11757 17.7068 8.24546 17.6574 8.3648C17.6081 8.48413 17.5357 8.59256 17.4444 8.68387C17.3531 8.77518 17.2447 8.84758 17.1253 8.89693C17.006 8.94627 16.8781 8.97158 16.749 8.97142Z" fill="#DDDEF2"/>
</svg>
